<?xml version="1.0" standalone="yes"?>
<svg xmlns="http://www.w3.org/2000/svg" width="512" height="512">
<path style="fill:#fdfefd; stroke:none;" d="M0 0L0 512L512 512L512 0L0 0z"/>
<path style="fill:#06aceb; stroke:none;" d="M138 35C126.083 34.3213 113.695 51.5997 106.909 60.0038C103.693 63.9868 100.39 67.705 101 73L98 73C75.6985 106.816 72.1605 155.8 83.5895 194C86.8971 205.055 93.4264 225.949 104.09 231.987C112.935 236.995 129.287 233.465 139 233.039C162.76 231.999 186.338 234.016 210 233C201.885 218.204 192.863 203.532 188.608 187C176.916 141.575 188.626 85.5391 222.001 52C231.082 42.8738 243.274 29.724 256 26C231.2 9.31729 191.08 9.74817 164 19.8109C156.915 22.4435 139.567 26.7414 138 35z"/>
<path style="fill:#f39522; stroke:none;" d="M259 25L259 27C314.027 60.1317 340.11 124.345 324.406 187C320.066 204.316 309.156 216.996 303 233L380 233C387.812 233 403.294 235.938 409.907 231.397C416.544 226.839 420.982 216.141 424.14 209C433.977 186.754 436.746 163.055 435.09 139C430.235 68.5119 375.818 8.50012 302 13.9113C287.362 14.9843 271.924 17.6524 259 25M186 14L187 15L186 14z"/>
<path style="fill:#047047; stroke:none;" d="M165 20L165 21L169 21L165 20M237.667 20.3333L238.333 20.6667L237.667 20.3333z"/>
<path style="fill:#f39522; stroke:none;" d="M152 24L153 25L152 24z"/>
<path style="fill:#047047; stroke:none;" d="M249 24L252 26L252 25L249 24z"/>
<path style="fill:#f39522; stroke:none;" d="M253 24L254 25L253 24z"/>
<path style="fill:#047047; stroke:none;" d="M213 233L211 228C233.765 228 257.205 226.52 280 228.246C287.11 228.785 301.055 231.01 304 223C298.426 221.632 298.64 219.298 299 214L300 214L305 220L306 220C310.214 214.305 307.35 203.89 315 202L315 193C322.582 190.878 321.365 180.456 323.025 174C325.554 164.159 323.329 154.962 323.005 145.004C322.874 140.998 324.661 136.849 324.088 132.996C322.693 123.622 318.435 114.511 318 105L317 105L314 107L308 99C314.014 99.8788 314.002 94.723 312.565 90.0146C310.131 82.0406 303.352 72.3788 298 66L295 67L296 61L292 60L293 56C290.237 55.7683 287.446 54.9156 287 58L283 58L283 57L285 57L285 56C280.146 53.7348 281.837 50.5131 281 46L280 46L278 50L276 50L275 49L277 42L266 44L266 40L270 39L270 37L260 36L261 32L259 35L255 35L254 28L259 27C253.504 24.7122 248.42 29.2715 244 32.321C232.146 40.4999 221.068 50.3116 212.576 62C185.974 98.6155 176.189 151.533 190.997 195C194.46 205.165 201.86 229.721 213 233z"/>
<path style="fill:#096740; stroke:none;" d="M254 28L255 35L261 32L260 36L270 37L270 39L266 40L266 44C270.478 45.3077 273.226 44.7139 277 42L275 49L276 50L278 50L280 46L281 46C281.171 50.7045 279.467 54.4347 285 56L285 57L283 57L283 58L287 58C287 54.5958 290.276 55.9264 293 56L292 60L296 61L295 67L298 66C302.415 73.5973 308.305 81.0078 311.856 89.0394C313.903 93.6681 313.799 98.7424 308 99L314 107L317 105L318 105C318.487 127.869 328.611 150.663 322.779 174C321.074 180.82 322.272 189.684 315 193L315 202C307.396 203.005 309.294 214.1 306 220L305 220L300 214L299 214C298.339 219.367 298.027 222.151 304 223C299.572 230.893 286.879 228.245 279 228.05C256.314 227.489 233.622 228 211 228C213.141 235.053 221.985 233 228 233C244.982 233 262.035 232.484 279 232.71C285.379 232.795 296.11 235.103 301.924 231.961C315.109 224.838 323.094 196.692 325.274 183C331.74 142.384 328.05 99.3593 302.985 65C294.266 53.0477 283.361 42.0119 271 33.838C265.67 30.3134 260.562 26.1372 254 28z"/>
<path style="fill:#047047; stroke:none;" d="M146 29L147 30L146 29z"/>
<path style="fill:#f39522; stroke:none;" d="M136 33L137 34L136 33z"/>
<path style="fill:#047047; stroke:none;" d="M136.667 34.3333L137.333 34.6667L136.667 34.3333z"/>
<path style="fill:#096740; stroke:none;" d="M242 36L243 40L251 37L242 36M252 37L253 38L252 37z"/>
<path style="fill:#047047; stroke:none;" d="M280 41L281 42L280 41z"/>
<path style="fill:#096740; stroke:none;" d="M230 49C233.915 49.683 236.607 50.1845 238 46C234.082 45.1104 231.389 44.8178 230 49z"/>
<path style="fill:#047047; stroke:none;" d="M286 46L287 47L286 46z"/>
<path style="fill:#f39522; stroke:none;" d="M117 48L118 49L117 48z"/>
<path style="fill:#047047; stroke:none;" d="M290 50L293 53L290 50z"/>
<path style="fill:#096740; stroke:none;" d="M227 51L230 54L227 51z"/>
<path style="fill:#06aceb; stroke:none;" d="M292 51L293 52L292 51z"/>
<path style="fill:#096740; stroke:none;" d="M251 56L251 59L253 59L253 56L251 56z"/>
<path style="fill:#f39522; stroke:none;" d="M108 58L109 59L108 58z"/>
<path style="fill:#096740; stroke:none;" d="M220 64L220 59C216.156 60.2775 216.156 62.7225 220 64M256.333 61.6667L256.667 62.3333L256.333 61.6667M294 67L295 68L294 67M211 69L214 74L211 69z"/>
<path style="fill:#f39522; stroke:none;" d="M99 71L98 73L99 71z"/>
<path style="fill:#047047; stroke:none;" d="M99 72L99 74L101 72L99 72z"/>
<path style="fill:#096740; stroke:none;" d="M295 73L296 74L295 73z"/>
<path style="fill:#047047; stroke:none;" d="M309 75L310 76L309 75z"/>
<path style="fill:#096740; stroke:none;" d="M208 83L209 84L208 83M209 85L211 88L209 85z"/>
<path style="fill:#047047; stroke:none;" d="M320 99L321 100L320 99z"/>
<path style="fill:#096740; stroke:none;" d="M238 114L225.27 133L218 149L218 150C221.828 152.304 220.953 155.041 220 159C225.244 160.841 226.91 164.78 228 170L240 177L240 178L235 179L235 180C246.081 179.717 260.275 184.278 270.715 178.868C279.673 174.226 283.943 165.457 291 159L291.245 142L285 126L277 121L280 115L265.996 112.546L238 114M283 113L284 117L288 116L288 114L283 113M309 113L312 117L309 113z"/>
<path style="fill:#047047; stroke:none;" d="M251 116L251 117L267 119C262.673 114.946 256.59 116 251 116M248 117L249 118L248 117z"/>
<path style="fill:#06aceb; stroke:none;" d="M249 117L249 118L252 118L249 117z"/>
<path style="fill:#f39522; stroke:none;" d="M252 117L253 118L252 117z"/>
<path style="fill:#fdfefd; stroke:none;" d="M253 117.439C214.806 123.392 222.785 182.725 261 176.292C298.434 169.99 290.551 111.586 253 117.439z"/>
<path style="fill:#f39522; stroke:none;" d="M261 117L262 118L261 117z"/>
<path style="fill:#06aceb; stroke:none;" d="M262.667 117.333L263.333 117.667L262.667 117.333M246 118L247 119L246 118z"/>
<path style="fill:#f39522; stroke:none;" d="M247 118L248 119L247 118M265 118L266 119L265 118z"/>
<path style="fill:#047047; stroke:none;" d="M243 119L244 120L243 119z"/>
<path style="fill:#06aceb; stroke:none;" d="M244 119L245 120L244 119M268 119L269 120L268 119z"/>
<path style="fill:#047047; stroke:none;" d="M269 119L270 120L269 119M241 120L242 121L241 120z"/>
<path style="fill:#06aceb; stroke:none;" d="M242 120L243 121L242 120M270 120L271 121L270 120z"/>
<path style="fill:#047047; stroke:none;" d="M271 120L272 121L271 120z"/>
<path style="fill:#06aceb; stroke:none;" d="M240 121L241 122L240 121M272 121L273 122L272 121z"/>
<path style="fill:#047047; stroke:none;" d="M273 121L274 122L273 121z"/>
<path style="fill:#096740; stroke:none;" d="M189 122L190 123L189 122z"/>
<path style="fill:#047047; stroke:none;" d="M238 122L239 123L238 122z"/>
<path style="fill:#f39522; stroke:none;" d="M239 122L240 123L239 122z"/>
<path style="fill:#06aceb; stroke:none;" d="M274 122L275 123L274 122z"/>
<path style="fill:#047047; stroke:none;" d="M237 123L238 124L237 123z"/>
<path style="fill:#f39522; stroke:none;" d="M275 123L276 124L275 123z"/>
<path style="fill:#096740; stroke:none;" d="M189 124L190 125L189 124z"/>
<path style="fill:#06aceb; stroke:none;" d="M236 124L237 125L236 124M276 124L277 125L276 124M235 125L236 126L235 125M277 125L278 126L277 125z"/>
<path style="fill:#047047; stroke:none;" d="M234 126L235 127L234 126z"/>
<path style="fill:#06aceb; stroke:none;" d="M278 126L279 127L278 126z"/>
<path style="fill:#047047; stroke:none;" d="M233 127L234 128L233 127z"/>
<path style="fill:#f39522; stroke:none;" d="M279 127L280 128L279 127z"/>
<path style="fill:#047047; stroke:none;" d="M80 128L80 131L81 131L80 128z"/>
<path style="fill:#096740; stroke:none;" d="M189.333 128.667L189.667 129.333L189.333 128.667M217 130L220 128L217 130z"/>
<path style="fill:#f39522; stroke:none;" d="M233 128L234 129L233 128z"/>
<path style="fill:#06aceb; stroke:none;" d="M280 128L281 129L280 128z"/>
<path style="fill:#f39522; stroke:none;" d="M232 129L233 130L232 129z"/>
<path style="fill:#047047; stroke:none;" d="M281 129L282 130L281 129z"/>
<path style="fill:#06aceb; stroke:none;" d="M231 130L232 131L231 130z"/>
<path style="fill:#047047; stroke:none;" d="M230 131L231 132L230 131z"/>
<path style="fill:#06aceb; stroke:none;" d="M282 131L283 132L282 131z"/>
<path style="fill:#096740; stroke:none;" d="M188 132L188 166L189 166L190 132L188 132z"/>
<path style="fill:#06aceb; stroke:none;" d="M230 132L231 133L230 132z"/>
<path style="fill:#047047; stroke:none;" d="M283 132L284 133L283 132M229 133L228 135L229 133z"/>
<path style="fill:#06aceb; stroke:none;" d="M283 133L284 134L283 133z"/>
<path style="fill:#096740; stroke:none;" d="M315.333 133.667L315.667 134.333L315.333 133.667z"/>
<path style="fill:#06aceb; stroke:none;" d="M229 134L230 135L229 134z"/>
<path style="fill:#047047; stroke:none;" d="M284 134L285 135L284 134z"/>
<path style="fill:#06aceb; stroke:none;" d="M228.333 135.667L228.667 136.333L228.333 135.667M284 135L285 136L284 135z"/>
<path style="fill:#047047; stroke:none;" d="M285.333 136.667L285.667 137.333L285.333 136.667z"/>
<path style="fill:#f39522; stroke:none;" d="M228 137L229 138L228 137z"/>
<path style="fill:#06aceb; stroke:none;" d="M285 138L286 139L285 138z"/>
<path style="fill:#047047; stroke:none;" d="M227 139L228 140L227 139z"/>
<path style="fill:#06aceb; stroke:none;" d="M227 140L228 141L227 140z"/>
<path style="fill:#047047; stroke:none;" d="M286 140L286 143L287 143L286 140z"/>
<path style="fill:#f39522; stroke:none;" d="M227.333 141.667L227.667 142.333L227.333 141.667z"/>
<path style="fill:#096740; stroke:none;" d="M321 141L322 142L321 141z"/>
<path style="fill:#047047; stroke:none;" d="M226 142L226 152L227 152L226 142z"/>
<path style="fill:#06aceb; stroke:none;" d="M286 143L286 151L287 151L286 143M226 148L227 149L226 148z"/>
<path style="fill:#f39522; stroke:none;" d="M227 151L228 152L227 151z"/>
<path style="fill:#047047; stroke:none;" d="M286.333 151.667L286.667 152.333L286.333 151.667z"/>
<path style="fill:#06aceb; stroke:none;" d="M227.333 152.667L227.667 153.333L227.333 152.667z"/>
<path style="fill:#047047; stroke:none;" d="M227.333 154.667L227.667 155.333L227.333 154.667z"/>
<path style="fill:#f39522; stroke:none;" d="M285 154L286 155L285 154z"/>
<path style="fill:#06aceb; stroke:none;" d="M285 155L284 159L285 159L285 155M228.333 156.667L228.667 157.333L228.333 156.667z"/>
<path style="fill:#047047; stroke:none;" d="M285 157L286 158L285 157M228 158L229 159L228 158z"/>
<path style="fill:#06aceb; stroke:none;" d="M229 159L230 160L229 159z"/>
<path style="fill:#047047; stroke:none;" d="M284 159L285 160L284 159M229 160L230 161L229 160z"/>
<path style="fill:#06aceb; stroke:none;" d="M283 160L284 161L283 160M230 161L231 162L230 161z"/>
<path style="fill:#047047; stroke:none;" d="M283 161L284 162L283 161z"/>
<path style="fill:#096740; stroke:none;" d="M319 161L319 164L320 164L319 161z"/>
<path style="fill:#f39522; stroke:none;" d="M231 162L232 163L231 162z"/>
<path style="fill:#047047; stroke:none;" d="M282 162L283 163L282 162M231 163L232 164L231 163z"/>
<path style="fill:#06aceb; stroke:none;" d="M281 163L282 164L281 163M232 164L233 165L232 164z"/>
<path style="fill:#f39522; stroke:none;" d="M280 164L281 165L280 164z"/>
<path style="fill:#047047; stroke:none;" d="M280 165L281 166L280 165z"/>
<path style="fill:#096740; stroke:none;" d="M290 165L289 170L290 170L290 165z"/>
<path style="fill:#047047; stroke:none;" d="M233 166L234 167L233 166M279 166L280 167L279 166M234 167L235 168L234 167M278 167L279 168L278 167M235 168L236 169L235 168M277 168L278 169L277 168M236 169L237 170L236 169M276 169L277 170L276 169z"/>
<path style="fill:#096740; stroke:none;" d="M189 170L189 174L190 174L189 170z"/>
<path style="fill:#047047; stroke:none;" d="M237 170L238 171L237 170z"/>
<path style="fill:#06aceb; stroke:none;" d="M238 170L239 171L238 170M274 170L275 171L274 170z"/>
<path style="fill:#047047; stroke:none;" d="M275 170L276 171L275 170z"/>
<path style="fill:#06aceb; stroke:none;" d="M239 171L240 172L239 171M273 171L274 172L273 171z"/>
<path style="fill:#047047; stroke:none;" d="M240 172L241 173L240 172z"/>
<path style="fill:#06aceb; stroke:none;" d="M241 172L242 173L241 172z"/>
<path style="fill:#f39522; stroke:none;" d="M271 172L272 173L271 172z"/>
<path style="fill:#047047; stroke:none;" d="M272 172L273 173L272 172z"/>
<path style="fill:#f39522; stroke:none;" d="M243 173L244 174L243 173z"/>
<path style="fill:#06aceb; stroke:none;" d="M270 173L271 174L270 173z"/>
<path style="fill:#047047; stroke:none;" d="M244 174L245 175L244 174z"/>
<path style="fill:#06aceb; stroke:none;" d="M245 174L246 175L245 174z"/>
<path style="fill:#f39522; stroke:none;" d="M267 174L268 175L267 174z"/>
<path style="fill:#06aceb; stroke:none;" d="M268 174L269 175L268 174z"/>
<path style="fill:#047047; stroke:none;" d="M269 174L270 175L269 174M246 175L247 176L246 175z"/>
<path style="fill:#06aceb; stroke:none;" d="M247.667 175.333L248.333 175.667L247.667 175.333M264.667 175.333L265.333 175.667L264.667 175.333z"/>
<path style="fill:#047047; stroke:none;" d="M266 175L267 176L266 175M248.667 176.333L249.333 176.667L248.667 176.333z"/>
<path style="fill:#06aceb; stroke:none;" d="M250 176L250 177L256 177L250 176z"/>
<path style="fill:#f39522; stroke:none;" d="M256 176L257 177L256 176z"/>
<path style="fill:#06aceb; stroke:none;" d="M260 176L260 177L263 177L260 176z"/>
<path style="fill:#047047; stroke:none;" d="M263 176L264 177L263 176M258.667 177.333L259.333 177.667L258.667 177.333z"/>
<path style="fill:#096740; stroke:none;" d="M190 178L189 180L191 180L190 178M279 181L281 183L281 181L279 181M236 183L236 184L239 184L239 183L236 183M222 185L222 188L225 188L225 185L222 185M316 187L317 188L316 187M295 195L295 198L296 198L295 195M196 200L195 202L197 202L196 200z"/>
<path style="fill:#047047; stroke:none;" d="M319 202L320 203L319 202z"/>
<path style="fill:#096740; stroke:none;" d="M198.333 205.667L198.667 206.333L198.333 205.667M201 209L204 211L202 217L203 218L205 218L208 211L201 209z"/>
<path style="fill:#047047; stroke:none;" d="M315 211L316 212L315 211M277 232L277 233L280 233L277 232M296 232L297 233L296 232M302 232L303 233L302 232z"/>
<path style="fill:#f39522; stroke:none;" d="M105 233L105 234L108 234L105 233M120 233L120 234L126 234L120 233M134 233L134 234L177 234C165.774 229.29 146.219 233 134 233M184 233L184 234L190 234L184 233M208 233L208 234L300 234L272 233L208 233z"/>
<path style="fill:#06aceb; stroke:none;" d="M300 233L301 234L300 233z"/>
<path style="fill:#f39522; stroke:none;" d="M301 233L302 234L301 233z"/>
<path style="fill:#06aceb; stroke:none;" d="M115 243C116.8 249.396 123.053 253.179 128 257.243C138.269 265.679 149.623 272.729 161 279.551C166.282 282.718 173.434 285.277 177.351 290.185C182.406 296.519 182.403 306.342 183.169 314C184.556 327.876 185.156 343.073 183.83 357C182.934 366.419 179.316 380.719 182.028 389.892C184.884 399.552 207.873 397.058 215 395.547C217.984 394.915 223.085 394.002 224.307 390.725C226.443 384.997 223.305 375.057 223.039 369C222.289 351.861 222.211 335.122 222.961 318C223.356 308.965 222.818 297.762 228.803 290.185C234.653 282.781 247.733 277.401 256 273L256 272L220 246L228 244L193.999 243.001L115 243M231 243L231 244L236 244L231 243M241 243L241 244L249 244L241 243z"/>
<path style="fill:#f39522; stroke:none;" d="M251.667 243.333L252.333 243.667L251.667 243.333z"/>
<path style="fill:#06aceb; stroke:none;" d="M256 243L256 244L264 244L256 243M272 243L272 244L282 244L272 243z"/>
<path style="fill:#f39522; stroke:none;" d="M286 243L286 244L291 244C285.216 254.801 266.825 266.481 256 272L256 273C296.168 282.439 293.146 326.35 290.91 359C290.415 366.231 285.467 386.759 290.603 392.347C296.657 398.934 325.588 399.517 330.82 391.581C334.585 385.872 330.178 371.646 330.015 365C329.485 343.389 324.864 315.623 333.287 295.001C336.386 287.413 345.367 283.67 352 279.692C366.219 271.166 390.679 259.57 398 244L373 243.91L286 243z"/>
<path style="fill:#047047; stroke:none;" d="M220 246C232.026 251.981 244.331 270.948 258 272L258 271L255 271C256.629 265.514 264.479 260.886 270 260L270 256L276 255L273 251L273 250L282 250L282 248L258 249L259 256L256 248L232 248L233 251L222 246L224 245L220 246z"/>
<path style="fill:#096740; stroke:none;" d="M222 245L222 246L233 251L232 248L256 248C255.31 251.813 255.495 254.011 259 256L258 249L282 248L282 250L273 250L273 251L276 255L270 256L270 260C264.251 260.527 255.979 265 255 271C268.62 270.047 279.731 253.507 291 247L291 245L261 244.947L222 245z"/>
<path style="fill:#047047; stroke:none;" d="M226 244L226 245L250 245L226 244M255 244L255 245L266 245L255 244M268 244L268 245L286 245L268 244M290 244L291 245L290 244M117 245L122 247L117 245M286 249L287 250L286 249z"/>
<path style="fill:#096740; stroke:none;" d="M246.667 250.333L247.333 250.667L246.667 250.333z"/>
<path style="fill:#047047; stroke:none;" d="M285 250L286 251L285 250z"/>
<path style="fill:#096740; stroke:none;" d="M235 253L235 255L238 255L238 253L235 253z"/>
<path style="fill:#047047; stroke:none;" d="M280 254L281 255L280 254z"/>
<path style="fill:#096740; stroke:none;" d="M250 258L252 262L246 262C249.362 267.165 254.334 263.633 256 259L252 261L252 258L250 258z"/>
<path style="fill:#047047; stroke:none;" d="M137 262L138 263L137 262M267 264L268 265L267 264M266 265L267 266L266 265M260 269L261 270L260 269M229 286L230 287L229 286z"/>
<path style="fill:#f39522; stroke:none;" d="M181.333 390.667L181.667 391.333L181.333 390.667z"/>
<path style="fill:#047047; stroke:none;" d="M183.667 390.333L184.333 390.667L183.667 390.333M220 390L220 392L223 392L223 390L220 390z"/>
<path style="fill:#f39522; stroke:none;" d="M132 486C133.242 493.729 138.343 493 145 493L145 454L108 454L108 468L124 468C119.96 478.205 106.561 479.919 99.2276 471.895C94.4303 466.645 94.0742 457.624 95.6844 451C99.1243 436.848 119.183 434.872 124 449L145 449C144.367 419.297 97.4018 413.926 80.4676 433.093C67.8602 447.363 68.9877 478.418 86 489.005C99.8972 497.654 119.06 494.527 132 486z"/>
<path style="fill:#06aceb; stroke:none;" d="M399 469L378 469C378.253 499.146 434.9 504.424 441.471 476C445.407 458.972 431.161 451.942 417 449.003C413.836 448.347 400.48 446.807 403.037 441.101C404.431 437.99 409.028 437.182 411.999 437.814C416.291 438.727 417.602 442.793 421.259 444.397C426.253 446.586 434.599 445 440 445C439.428 418.168 389.115 413.483 380.144 437.001C373.669 453.976 388.932 463.119 403 466.349C407.109 467.292 416.878 467.851 418.387 472.807C419.548 476.619 413.505 477.831 411 477.952C404.656 478.259 399.992 475.412 399 469z"/>
<path style="fill:#f39522; stroke:none;" d="M153 424C158.358 440.466 164.503 456.689 170.308 473C172.109 478.061 173.727 488.855 178.419 491.972C182.032 494.372 199.897 494.676 202.914 491.397C207.297 486.632 208.933 476.077 211.003 470C216.183 454.798 223.298 439.624 227 424L204 424L191 469L190 469L177 424L153 424z"/>
<path style="fill:#06aceb; stroke:none;" d="M237 424L237 492L258 492C258 487.027 255.851 475.356 259.603 471.603C262.482 468.725 269.302 470.006 273 470C280.712 469.988 287.5 468.471 292.442 461.985C301.281 450.384 297.441 430.131 283 425.109C269.94 420.567 250.772 424 237 424M309 424L309 492L331 492L331 470C339.508 470 350.267 471.794 358 467.583C372.25 459.82 373.074 436.908 359.996 427.649C348.062 419.2 323.073 424 309 424z"/>
<path style="fill:#fdfefd; stroke:none;" d="M258 440L258 454C261.937 454 267.188 454.875 270.867 453.258C275.465 451.236 275.986 443.869 271.721 441.179C268.134 438.916 262.064 440 258 440M331 440L331 454C334.774 454 340.424 455.019 343.772 452.972C347.822 450.496 347.802 443.643 343.772 441.179C340.327 439.073 334.87 440 331 440z"/>
</svg>
